<?xml version="1.0" standalone="no"?>
<!DOCTYPE svg PUBLIC "-//W3C//DTD SVG 20010904//EN"
 "http://www.w3.org/TR/2001/REC-SVG-20010904/DTD/svg10.dtd">
<svg version="1.0" xmlns="http://www.w3.org/2000/svg"
 width="37.000000pt" height="37.000000pt" viewBox="0 0 37.000000 37.000000"
 preserveAspectRatio="xMidYMid meet">

<g transform="translate(0.000000,37.000000) scale(0.100000,-0.100000)"
fill="#000000" stroke="none">
<path d="M0 185 l0 -185 68 0 67 0 -34 17 c-45 23 -83 82 -89 143 -13 140 136
237 260 168 57 -33 83 -80 83 -154 0 -72 -32 -130 -86 -157 l-34 -17 68 0 67
0 0 185 0 185 -185 0 -185 0 0 -185z"/>
<path d="M114 311 c-95 -58 -108 -174 -29 -251 34 -33 41 -35 100 -35 59 0 66
2 100 35 61 59 69 150 18 211 -51 60 -129 76 -189 40z m46 -86 l24 -25 28 27
c22 21 31 24 40 15 9 -9 6 -18 -14 -39 l-27 -28 25 -29 c18 -20 22 -32 15 -39
-8 -8 -19 -4 -38 16 l-27 27 -28 -27 c-20 -19 -31 -24 -39 -16 -7 7 -3 19 15
39 l25 29 -26 27 c-14 14 -22 31 -19 37 11 16 20 13 46 -14z"/>
</g>
</svg>
