<?xml version="1.0" standalone="no"?>
<!DOCTYPE svg PUBLIC "-//W3C//DTD SVG 20010904//EN"
 "http://www.w3.org/TR/2001/REC-SVG-20010904/DTD/svg10.dtd">
<svg version="1.0" xmlns="http://www.w3.org/2000/svg"
 width="58.000000pt" height="28.000000pt" viewBox="0 0 58.000000 28.000000"
 preserveAspectRatio="xMidYMid meet">

<g transform="translate(0.000000,28.000000) scale(0.100000,-0.100000)"
fill="#000000" stroke="none">
<path d="M110 270 c63 -3 103 -7 89 -8 -14 -1 -34 -9 -45 -18 -18 -15 -17 -15
16 -10 19 2 29 2 22 -1 -6 -2 -10 -9 -6 -14 3 -5 18 0 34 11 18 13 44 20 75
20 40 0 52 -5 81 -34 26 -26 34 -42 34 -70 0 -20 5 -36 10 -36 17 0 11 64 -10
98 -11 17 -17 32 -15 32 13 0 103 -51 130 -74 l30 -24 -29 -31 c-42 -44 -23
-52 20 -9 l36 35 -39 37 c-40 38 -123 85 -157 88 -12 1 29 5 89 8 68 4 -3 6
-185 6 -187 0 -253 -2 -180 -6z"/>
<path d="M30 252 c0 -5 14 -15 30 -22 l31 -13 -41 -34 c-22 -19 -40 -41 -40
-48 0 -19 94 -89 150 -112 63 -25 197 -25 267 1 50 19 55 19 87 3 20 -9 38
-13 40 -8 3 5 -106 58 -242 119 -291 130 -282 127 -282 114z m126 -112 c-1
-35 5 -57 22 -79 12 -17 20 -31 16 -31 -15 0 -124 64 -144 85 l-21 22 41 36
c35 30 46 34 64 26 19 -9 22 -18 22 -59z m59 -10 c5 -61 72 -90 123 -54 29 20
69 10 51 -13 -43 -51 -123 -57 -173 -12 -50 43 -63 126 -19 117 10 -2 17 -16
18 -38z m223 -69 c10 -6 6 -11 -17 -19 -29 -10 -30 -10 -18 9 13 21 16 22 35
10z"/>
<path d="M245 200 c-3 -6 5 -14 19 -20 14 -5 43 -19 66 -30 38 -19 40 -19 40
-2 0 33 -37 62 -80 62 -21 0 -42 -5 -45 -10z"/>
</g>
</svg>
