<?xml version="1.0" standalone="no"?>
<!DOCTYPE svg PUBLIC "-//W3C//DTD SVG 20010904//EN"
 "http://www.w3.org/TR/2001/REC-SVG-20010904/DTD/svg10.dtd">
<svg version="1.0" xmlns="http://www.w3.org/2000/svg"
 width="29.000000pt" height="29.000000pt" viewBox="0 0 29.000000 29.000000"
 preserveAspectRatio="xMidYMid meet">

<g transform="translate(0.000000,29.000000) scale(0.100000,-0.100000)"
fill="#000000" stroke="none">
<path d="M0 145 l0 -145 145 0 145 0 0 145 0 145 -145 0 -145 0 0 -145z m110
110 c10 -12 10 -19 2 -27 -23 -23 -13 -38 23 -38 43 0 49 -27 8 -33 -16 -2
-12 -4 11 -3 34 2 40 -2 54 -31 10 -20 23 -33 35 -33 24 0 17 -21 -11 -31 -20
-7 -24 -4 -38 31 -16 39 -17 40 -65 40 -28 0 -49 5 -49 11 0 5 -4 7 -10 4 -14
-9 -13 -58 2 -73 19 -19 59 -14 84 9 12 11 25 16 28 11 10 -16 -27 -52 -61
-58 -27 -5 -37 -1 -63 24 -16 17 -30 39 -30 49 0 23 28 65 39 58 5 -2 5 15 0
38 -10 57 13 86 41 52z"/>
</g>
</svg>
