<?xml version="1.0" standalone="no"?>
<!DOCTYPE svg PUBLIC "-//W3C//DTD SVG 20010904//EN"
 "http://www.w3.org/TR/2001/REC-SVG-20010904/DTD/svg10.dtd">
<svg version="1.0" xmlns="http://www.w3.org/2000/svg"
 width="50.000000pt" height="28.000000pt" viewBox="0 0 50.000000 28.000000"
 preserveAspectRatio="xMidYMid meet">

<g transform="translate(0.000000,28.000000) scale(0.100000,-0.100000)"
fill="#000000" stroke="none">
<path d="M145 219 c-44 -22 -95 -67 -95 -84 0 -19 63 -73 104 -90 53 -22 135
-21 188 3 45 20 98 67 98 86 0 19 -62 74 -102 90 -52 22 -144 20 -193 -5z
m212 -34 c73 -43 68 -70 -22 -111 -65 -31 -118 -30 -182 1 -76 38 -83 50 -46
86 63 64 165 73 250 24z"/>
<path d="M195 185 c-14 -13 -25 -36 -25 -50 0 -35 42 -75 78 -75 36 0 72 37
72 74 0 34 -41 76 -75 76 -14 0 -37 -11 -50 -25z m90 -29 c18 -27 11 -52 -17
-67 -42 -23 -90 45 -56 79 20 20 56 14 73 -12z"/>
</g>
</svg>
