<?xml version="1.0" standalone="no"?>
<!DOCTYPE svg PUBLIC "-//W3C//DTD SVG 20010904//EN"
 "http://www.w3.org/TR/2001/REC-SVG-20010904/DTD/svg10.dtd">
<svg version="1.0" xmlns="http://www.w3.org/2000/svg"
 width="58.000000pt" height="34.000000pt" viewBox="0 0 58.000000 34.000000"
 preserveAspectRatio="xMidYMid meet">

<g transform="translate(0.000000,34.000000) scale(0.100000,-0.100000)"
fill="#000000" stroke="none">
<path d="M0 170 l0 -170 290 0 290 0 0 170 0 170 -290 0 -290 0 0 -170z m394
79 c31 -11 77 -39 102 -63 l47 -42 -37 -29 c-44 -34 -60 -26 -20 10 l29 25
-30 26 c-28 23 -97 64 -110 64 -3 0 1 -13 10 -30 17 -33 21 -95 5 -85 -5 3
-10 19 -10 34 0 38 -32 77 -75 91 -30 10 -41 9 -78 -9 -49 -24 -61 -26 -51
-10 4 8 0 9 -15 4 -31 -10 -26 12 7 23 49 18 166 14 226 -9z m-119 -92 c126
-57 231 -109 233 -116 3 -9 -6 -8 -28 4 -31 16 -36 16 -89 -1 -82 -27 -183
-24 -252 8 -54 24 -129 82 -129 98 0 5 19 22 42 39 l42 31 -32 12 c-30 11 -44
28 -23 28 4 0 111 -46 236 -103z m42 48 c21 -14 38 -55 23 -55 -8 0 -102 40
-110 47 -7 7 24 23 45 23 11 0 30 -7 42 -15z"/>
<path d="M70 181 c-31 -25 -33 -30 -21 -45 21 -25 65 -54 106 -72 l36 -15 -22
30 c-14 20 -22 44 -22 73 0 65 -23 74 -77 29z"/>
<path d="M167 166 c-11 -29 13 -87 46 -106 45 -28 89 -25 127 7 28 23 30 27
15 36 -11 6 -22 4 -34 -7 -21 -19 -71 -21 -95 -3 -10 7 -21 28 -25 47 -7 36
-25 50 -34 26z"/>
<path d="M371 68 c-11 -18 -10 -18 11 -7 31 16 31 16 15 22 -7 3 -19 -4 -26
-15z"/>
</g>
</svg>
