<?xml version="1.0" standalone="no"?>
<!DOCTYPE svg PUBLIC "-//W3C//DTD SVG 20010904//EN"
 "http://www.w3.org/TR/2001/REC-SVG-20010904/DTD/svg10.dtd">
<svg version="1.0" xmlns="http://www.w3.org/2000/svg"
 width="50.000000pt" height="50.000000pt" viewBox="0 0 50.000000 50.000000"
 preserveAspectRatio="xMidYMid meet">

<g transform="translate(0.000000,50.000000) scale(0.100000,-0.100000)"
fill="#000000" stroke="none">
<path d="M0 250 l0 -250 250 0 250 0 0 250 0 250 -250 0 -250 0 0 -250z m340
175 c0 -32 -3 -35 -28 -35 -36 0 -52 -16 -52 -52 0 -25 3 -28 33 -28 42 0 44
-2 39 -45 -4 -32 -7 -35 -38 -35 l-34 0 0 -100 0 -100 -40 0 -40 0 0 100 0
100 -36 0 c-35 0 -35 1 -32 38 3 34 6 37 36 40 31 3 32 5 32 48 0 37 6 51 29
75 25 24 37 29 80 29 l51 0 0 -35z"/>
</g>
</svg>
