<?xml version="1.0" standalone="no"?>
<!DOCTYPE svg PUBLIC "-//W3C//DTD SVG 20010904//EN"
 "http://www.w3.org/TR/2001/REC-SVG-20010904/DTD/svg10.dtd">
<svg version="1.0" xmlns="http://www.w3.org/2000/svg"
 width="40.000000pt" height="40.000000pt" viewBox="0 0 40.000000 40.000000"
 preserveAspectRatio="xMidYMid meet">

<g transform="translate(0.000000,40.000000) scale(0.100000,-0.100000)"
fill="#000000" stroke="none">
<path d="M155 344 c-46 -23 -65 -53 -65 -105 0 -54 44 -150 88 -192 l29 -28
33 37 c78 89 103 206 55 258 -43 46 -90 56 -140 30z m100 -59 c30 -30 31 -54
4 -89 -26 -33 -73 -35 -106 -4 -29 27 -29 65 -1 95 29 31 72 30 103 -2z"/>
</g>
</svg>
