<?xml version="1.0" standalone="no"?>
<!DOCTYPE svg PUBLIC "-//W3C//DTD SVG 20010904//EN"
 "http://www.w3.org/TR/2001/REC-SVG-20010904/DTD/svg10.dtd">
<svg version="1.0" xmlns="http://www.w3.org/2000/svg"
 width="35.000000pt" height="31.000000pt" viewBox="0 0 35.000000 31.000000"
 preserveAspectRatio="xMidYMid meet">

<g transform="translate(0.000000,31.000000) scale(0.100000,-0.100000)"
fill="#000000" stroke="none">
<path d="M52 278 c-17 -17 -17 -229 0 -246 17 -17 239 -17 256 0 17 17 17 229
0 246 -17 17 -239 17 -256 0z m233 -123 l0 -110 -99 -3 c-64 -2 -103 1 -112 9
-15 12 -21 170 -8 204 5 13 22 15 113 13 l106 -3 0 -110z"/>
<path d="M102 219 c2 -6 8 -10 13 -10 5 0 11 4 13 10 2 6 -4 11 -13 11 -9 0
-15 -5 -13 -11z"/>
<path d="M106 183 c-3 -3 -6 -28 -6 -55 0 -36 4 -48 15 -48 11 0 15 12 15 49
0 47 -9 68 -24 54z"/>
<path d="M170 130 c0 -58 17 -68 22 -12 4 52 32 51 36 -1 4 -43 25 -46 30 -4
5 43 -14 67 -53 67 l-35 0 0 -50z"/>
</g>
</svg>
