<?xml version="1.0" standalone="no"?>
<!DOCTYPE svg PUBLIC "-//W3C//DTD SVG 20010904//EN"
 "http://www.w3.org/TR/2001/REC-SVG-20010904/DTD/svg10.dtd">
<svg version="1.0" xmlns="http://www.w3.org/2000/svg"
 width="264.000000pt" height="264.000000pt" viewBox="0 0 264.000000 264.000000"
 preserveAspectRatio="xMidYMid meet">

<g transform="translate(0.000000,264.000000) scale(0.100000,-0.100000)"
fill="#000000" stroke="none">
<path d="M318 2585 c-109 -30 -198 -106 -251 -214 l-32 -66 0 -1000 0 -1000
27 -57 c31 -67 103 -147 162 -182 99 -58 64 -56 1101 -56 927 0 953 1 1010 20
151 52 243 152 274 298 15 74 16 1879 0 1954 -27 128 -121 243 -236 290 l-58
23 -975 2 c-777 1 -985 -1 -1022 -12z m2011 -92 c65 -21 128 -75 166 -144 l30
-54 0 -990 0 -990 -23 -42 c-33 -63 -74 -106 -131 -137 l-51 -27 0 235 c0 129
-5 270 -11 313 -39 283 -223 514 -481 604 l-77 26 26 34 c65 86 103 206 103
328 0 161 -50 282 -166 397 -222 222 -562 220 -784 -5 -170 -171 -213 -406
-115 -619 19 -40 43 -84 54 -99 28 -35 27 -40 -11 -48 -56 -12 -190 -82 -256
-135 -112 -91 -199 -224 -243 -370 -20 -68 -22 -103 -26 -367 l-5 -292 -48 24
c-26 13 -66 45 -88 70 -76 87 -72 24 -72 1100 0 1101 -7 1020 89 1116 94 94
12 87 1107 88 872 1 967 -1 1013 -16z m-806 -415 c363 -173 364 -677 2 -854
-79 -39 -81 -39 -200 -39 -118 0 -121 1 -198 37 -339 162 -371 626 -57 826 88
57 148 72 270 69 98 -2 110 -5 183 -39z m-498 -899 c26 -18 79 -43 118 -58 61
-22 89 -25 182 -25 126 0 198 20 294 81 55 36 57 36 111 25 30 -6 96 -32 147
-58 152 -76 273 -222 329 -394 14 -46 18 -104 22 -352 l4 -298 -906 0 -906 0
0 277 c0 302 6 350 60 468 75 166 235 303 407 350 72 20 88 18 138 -16z"/>
</g>
</svg>
